<svg id="Olive" xmlns="http://www.w3.org/2000/svg" viewBox="0 0 1505.67 686.12">
<defs>
    <style>
        .cls-1{
            fill:none;
            stroke-dasharray: 8000;
            stroke-dashoffset: 0;
            stroke:#7E8D85;
            stroke-miterlimit:10;
            stroke-width:4px;

            -webkit-animation: dash 7s linear backwards infinite;
            -o-webkit-animation: dash 7s linear backwards infinite;
            -moz-webkit-animation: dash 7s linear backwards infinite;
            animation: dash 7s linear backwards infinite;
        }


        @-webkit-keyframes dash {
            from {
                stroke-dashoffset: 8000;
            } to {
                stroke-dashoffset: 0;
            }
        }
    </style>
</defs>
<title>personal-olive</title>
<path class="cls-1" d="M1503.67,612.61c0,8.67,0-8.67,0,0-23.38-2.18-46.73-4.82-70.15-6.43-50.56-3.47-99.19-7.27-149.51-4.9-44.77,2.1-91,13.3-135.77,19.15-25.28,3.3-51.43.48-77.16-.31-30.59-.95-61.15-2.64-91.71-4.25-1.39-.07-3.69-2.45-3.83-3.92-1.34-14.15.2-29.1-3.89-42.34-9.09-29.42-50.17-45.47-76.3-32.83-6.19,3-14.95,2.09-22.21,1-4.09-.64-7.53-5.42-11.26-8.34l-4.09-3.21c1.75-1,3.53-3,5.25-3,18.42.61,37.75,5.52,55,1.5,31.71-7.36,62.29-19.72,93.18-30.46,9.2-3.2,17.86-8,26.77-12q-12-4.46-24.05-8.94c-1.09-.41-2-1.2-3.15-1.51-39.32-11.22-77.58-10.79-112.93,12.34-10.17,6.66-18.77,15.72-32.35,27.33,7-16.47,9.88-28.4,16.66-37.32,5.45-7.17,15.34-14.43,23.85-15.22,36.7-3.4,73.88-2.36,110.36-7,24.59-3.15,48.21-13.53,72.48-19.83,6.58-1.71,14-.31,21-.34-6.69-5.17-13.38-10.37-20.11-15.5a11.69,11.69,0,0,0-2.33-.87l-51.54-23.11c36.1-17.25,44.74-41.3,24.1-64.88-2.32-2.65-3.72-6.12-5.54-9.2,11.44-5.13,22.8-10.46,34.34-15.35,21.17-9,42.54-17.48,63.56-26.78,2.22-1,2.77-5.91,3.8-9.1.1-.3-1.89-1.78-3-1.88-8.54-.78-17.26-.61-25.56-2.41-2.7-.58-6.84-7-6-9.26,6.18-17.45,13.5-34.5,20.17-51.79.84-2.17-.07-5-.18-7.55-3,1.11-6.58,1.53-8.92,3.46-7.55,6.22-13.75,14.57-22.06,19.29-33.42,19-66.72,38.48-101.56,54.52-16.53,7.61-36.44,7.87-60.64,12.6,8.2-17.81,11.92-40.92,25.43-51.32,15.85-12.2,41.15-11.2,60.68-19.73,41.5-18.12,54.32-57.75,66.66-96.71,5.75-18.15,10-36.76,14.85-55.19.41-1.57.05-3.35.05-5-1.65.31-3.86.05-4.86,1-8.52,8.34-15.72,18.55-25.42,25.06-18.87,12.67-37.85,28.48-59.06,33.61-35.19,8.51-65.6,37.51-66.84,73.54-.11,3.07-2.11,6.08-3.67,10.28-3-21.71-7.34-40.51-7.52-59.34-.13-12.62,9.83-25.94,8-37.84-5-32.58-13.82-64.58-21.21-96.79-.22-1-1.31-1.74-2-2.61-1.21,1-2.95,1.71-3.54,3-7,14.91-13.42,30.07-20.63,44.85-21.2,43.5-18.36,83,9.36,124.77,15.9,24,24,55.67,27,84.77,1.85,18.2-14.07,37.63-19,57.27-4.21,16.87-1.14,35.82-6.61,52.06-8.45,25.11-21.44,48.7-32.51,72.93a81.67,81.67,0,0,1,1.34-37.61c9.95-35.29,16.51-71.87.55-105.45-15.75-33.14-38.6-62.91-58.53-94-1.34-2.09-4.29-3.16-6.5-4.7-1.17,2.85-3.67,5.89-3.3,8.52,3.58,25.48,12.42,51.26,10.52,76.25-3.28,43.18,9.81,81.87,28.71,117.39,19.72,37.06,20,69.71-12,99.25.69-4.75,1.59-8.21,1.64-11.68.29-20.87,2.75-42.06.06-62.56-5.75-43.83-32.67-77-60.57-109.08-1.75-2-4.66-3-7-4.49-1.25,2.54-3.84,5.27-3.51,7.59,1.43,10.35,2.91,20.81,5.8,30.82,9.49,32.91,19.19,65.77,29.59,98.4,7,22,21.08,43.54,21.09,65.3,0,14.93-18.61,29.94-29.1,44.78-14.22,20.11-28.31,40.33-43.09,60-7.24,9.65-14.5,23.89-24.16,26.28-38.45,9.5-77.6,18.42-117,21.39-47.15,3.55-94.79,1.56-142.19.57-50.49-1.05-101.26-.93-151.33-6.55-44.23-5-87.28-20.7-131.51-25.28-67.1-7-133.51-13.91-196.29-41"/>
<path class="cls-1" d="M1503.67,627.61"/>
<path class="cls-1" d="M98.47,640.52c31.43,8,65,6.9,97.25,12.39,38.11,6.5,75.45,18.06,113.69,23,34.89,4.53,70.53,3.51,105.86,4.38,67.7,1.66,135.44,4.57,203.12,3.62,32.67-.46,65.58-6.86,97.7-13.73,17.58-3.76,39-9.7,49.53-22.31,25.55-30.68,45.09-66.28,68.63-98.76,4.28-5.9,18.82-11.13,23.74-8.27,8.07,4.7,13.71,15.65,17.48,25.11,4.14,10.4,1.67,24.62,7.86,32.8,30,39.57,77.08,28.44,117.52,35.56,24,4.23,49.48,2.38,74.14.88,46.39-2.81,92.7-7.08,139-11.24,42.72-3.84,85.47-12.39,128-11.49,54,1.14,107.76,9.73,161.63,15.11"/>
<path class="cls-1" d="M.79,596.54c62.78,27.12,129.19,34.08,196.29,41,44.23,4.58,87.28,20.31,131.51,25.28,50.06,5.62,100.84,5.5,151.33,6.55,47.4,1,95,3,142.19-.57,39.36-3,78.51-11.88,117-21.39,9.66-2.39,16.93-16.64,24.16-26.28,14.78-19.7,28.87-39.92,43.09-60,10.49-14.84,29.11-29.85,29.1-44.78,0-21.75-14.08-43.31-21.09-65.3-10.4-32.63-20.11-65.49-29.59-98.4-2.89-10-4.37-20.47-5.8-30.82-.32-2.32,2.27-5,3.51-7.59,2.37,1.47,5.28,2.48,7,4.49C817.38,350.84,844.3,384,850,427.83c2.69,20.5.23,41.69-.06,62.56,0,3.47-.95,6.94-1.64,11.68,32-29.54,31.69-62.19,12-99.25-18.9-35.52-32-74.21-28.71-117.39,1.9-25-6.94-50.77-10.52-76.25-.37-2.63,2.13-5.67,3.3-8.52,2.2,1.54,5.16,2.6,6.5,4.7,19.93,31.13,42.78,60.9,58.53,94,16,33.57,9.4,70.16-.55,105.45a81.67,81.67,0,0,0-1.34,37.61c11.06-24.23,24.05-47.82,32.51-72.93,5.47-16.24,2.4-35.19,6.61-52.06,4.9-19.64,20.82-39.07,19-57.27-3-29.1-11.07-60.79-27-84.77-27.72-41.8-30.56-81.27-9.36-124.77C916.49,35.86,923,20.71,929.91,5.8c.59-1.27,2.33-2,3.54-3,.69.86,1.78,1.64,2,2.61,7.39,32.21,16.21,64.21,21.21,96.79,1.82,11.89-8.13,25.21-8,37.84.19,18.84,4.54,37.63,7.52,59.34,1.56-4.2,3.56-7.2,3.67-10.28,1.24-36,31.64-65,66.84-73.54,21.21-5.13,40.19-20.94,59.06-33.61,9.7-6.51,16.9-16.72,25.42-25.06,1-1,3.21-.72,4.86-1,0,1.68.36,3.46-.05,5-4.84,18.43-9.11,37-14.85,55.19-12.34,39-25.16,78.59-66.66,96.71-19.54,8.53-44.83,7.53-60.68,19.73-13.51,10.4-17.23,33.52-25.43,51.32,24.2-4.73,44.11-5,60.64-12.6,34.84-16,68.14-35.54,101.56-54.52,8.31-4.72,14.52-13.07,22.06-19.29,2.34-1.93,5.91-2.35,8.92-3.46.1,2.53,1,5.38.18,7.55-6.67,17.29-14,34.33-20.17,51.79-.79,2.24,3.34,8.67,6,9.26,8.3,1.8,17,1.63,25.56,2.41,1.1.1,3.09,1.58,3,1.88-1,3.19-1.58,8.12-3.8,9.1-21,9.3-42.39,17.81-63.56,26.78-11.54,4.89-22.9,10.22-34.34,15.35,1.83,3.09,3.22,6.55,5.54,9.2,20.65,23.58,12,47.63-24.1,64.88l51.54,23.11a11.69,11.69,0,0,1,2.33.87c6.73,5.13,13.41,10.32,20.11,15.5-7,0-14.4-1.36-21,.34-24.27,6.3-47.89,16.68-72.48,19.83-36.48,4.68-73.66,3.64-110.36,7-8.51.79-18.4,8-23.85,15.22-6.79,8.93-9.63,20.85-16.66,37.32,13.58-11.6,22.18-20.67,32.35-27.33,35.35-23.13,73.61-23.56,112.93-12.34,1.1.31,2.06,1.11,3.15,1.51q12,4.51,24.05,8.94c-8.91,4.05-17.56,8.82-26.77,12-30.89,10.75-61.46,23.1-93.18,30.46-17.28,4-36.62-.9-55-1.5-1.71-.06-3.5,1.92-5.25,3l4.09,3.21c3.73,2.92,7.17,7.7,11.26,8.34,7.26,1.14,16,2,22.21-1,26.13-12.64,67.22,3.42,76.3,32.83,4.09,13.24,2.55,28.2,3.89,42.34.14,1.47,2.44,3.85,3.83,3.92,30.56,1.61,61.12,3.3,91.71,4.25,25.73.8,51.88,3.61,77.16.31,44.79-5.85,91-17,135.77-19.15,50.32-2.37,99,1.43,149.51,4.9,23.42,1.61,46.77,4.26,70.15,6.43v15c-53.87-5.38-107.67-14-161.63-15.11-42.58-.9-85.33,7.66-128,11.49-46.3,4.16-92.61,8.43-139,11.24-24.66,1.5-50.1,3.35-74.14-.88-40.44-7.12-87.57,4-117.52-35.56-6.19-8.18-3.72-22.41-7.86-32.8-3.77-9.47-9.4-20.41-17.48-25.11-4.92-2.86-19.46,2.37-23.74,8.27-23.54,32.48-43.09,68.08-68.63,98.76-10.5,12.61-31.94,18.55-49.53,22.31-32.13,6.86-65,13.27-97.7,13.73-67.68.95-135.42-2-203.12-3.62-35.33-.86-71,.16-105.86-4.38-38.24-5-75.59-16.53-113.69-23-32.21-5.49-65.83-4.41-97.25-12.39C44,626.66,55.35,610.07.79,596.54M973.86,393.12c-4.41-6.42-11.43-16.94-18.79-27.22-2.34-3.26-5.1-7-8.53-8.44-2.52-1-8.57.38-9.45,2.32-11.64,25.77-22.64,51.83-31.43,72.3Z"/>
<path class="cls-1" id="triangle" d="M973.86,393.12l-68.2,39c8.79-20.47,19.79-46.53,31.43-72.3.88-1.95,6.93-3.37,9.45-2.32,3.44,1.43,6.2,5.18,8.53,8.44C962.43,376.18,969.45,386.7,973.86,393.12Z"/>
</svg>